<svg width="1024" height="1024" viewBox="0 0 1024 1024" fill="none" xmlns="http://www.w3.org/2000/svg">
<defs>
<linearGradient id="paint0_linear" x1="0" y1="0" x2="1024" y2="1024" gradientUnits="userSpaceOnUse">
<stop stop-color="#6366f1"/>
<stop offset="1" stop-color="#ec4899"/>
</linearGradient>
<filter id="shadow" x="-50" y="-50" width="1124" height="1124" filterUnits="userSpaceOnUse" color-interpolation-filters="sRGB">
<feFlood flood-opacity="0" result="BackgroundImageFix"/>
<feColorMatrix in="SourceAlpha" type="matrix" values="0 0 0 0 0 0 0 0 0 0 0 0 0 0 0 0 0 0 127 0" result="hardAlpha"/>
<feOffset dy="10"/>
<feGaussianBlur stdDeviation="20"/>
<feComposite in2="hardAlpha" operator="out"/>
<feColorMatrix type="matrix" values="0 0 0 0 0 0 0 0 0 0 0 0 0 0 0 0 0 0 0.25 0"/>
<feBlend mode="normal" in2="BackgroundImageFix" result="effect1_dropShadow"/>
<feBlend mode="normal" in="SourceGraphic" in2="effect1_dropShadow" result="shape"/>
</filter>
</defs>

<!-- Fundo com Gradiente e Cantos Arredondados -->
<rect width="1024" height="1024" rx="200" fill="url(#paint0_linear)"/>

<!-- Ícone DNA / Infinito / Coração estilizado em Branco -->
<path d="M725.333 298.667C686.8 298.667 650.667 314.667 624 341.333L512 453.333L400 341.333C373.333 314.667 337.2 298.667 298.667 298.667C222 298.667 160 360.667 160 437.333C160 475.867 176 512 202.667 538.667L512 848L821.333 538.667C848 512 864 475.867 864 437.333C864 360.667 802 298.667 725.333 298.667ZM262.667 478.667C252 468 245.333 453.333 245.333 437.333C245.333 408 269.333 384 298.667 384C314.667 384 329.333 390.667 340 401.333L512 573.333L373.333 712L262.667 601.333L262.667 478.667ZM761.333 478.667L650.667 368L554.667 464L682.667 592L761.333 513.333C781.333 493.333 781.333 461.333 761.333 478.667Z" fill="white"/>

<!-- Detalhes do DNA (Traços de conexão) -->
<path d="M350 450 L450 550" stroke="white" stroke-width="20" stroke-linecap="round" stroke-opacity="0.5"/>
<path d="M570 670 L670 770" stroke="white" stroke-width="20" stroke-linecap="round" stroke-opacity="0.5"/>
<path d="M550 450 L650 350" stroke="white" stroke-width="20" stroke-linecap="round" stroke-opacity="0.5"/>
</svg>